<?xml version="1.0" encoding="utf-8"?>
<!-- Generator: Adobe Illustrator 28.0.0, SVG Export Plug-In . SVG Version: 6.00 Build 0)  -->
<svg version="1.1" id="Capa_1" xmlns="http://www.w3.org/2000/svg" xmlns:xlink="http://www.w3.org/1999/xlink" x="0px" y="0px"
	 viewBox="0 0 100 23.5" style="enable-background:new 0 0 100 23.5;" xml:space="preserve">
<g>
	<g>
		<path d="M3.9,21.2V3h4.2l7.5,12.4h-2.2L20.7,3H25l0,18.2h-4.7l-0.1-11H21l-5.5,9.2h-2.3l-5.6-9.2h1v11H3.9z"/>
		<path d="M24.9,21.2L33,3H38l8.1,18.2h-5.4L34.4,5.6h2l-6.3,15.7H24.9z M29.3,17.7l1.3-3.8h8.9l1.3,3.8H29.3z"/>
		<path d="M46,21.2V3h5.1v14.1h8.7v4.1H46z"/>
		<path d="M60.4,21.2V3h9.3C72,3,73.8,3.5,75,4.4c1.2,0.9,1.8,2,1.8,3.4c0,0.9-0.2,1.8-0.7,2.5c-0.5,0.7-1.2,1.3-2.1,1.7
			c-0.9,0.4-2,0.6-3.2,0.6l0.5-1.2c1.3,0,2.4,0.2,3.3,0.6c1,0.4,1.7,1,2.2,1.7c0.5,0.7,0.8,1.6,0.8,2.7c0,1.6-0.6,2.8-1.9,3.7
			c-1.3,0.9-3.1,1.3-5.6,1.3H60.4z M65.4,17.5h4.3c0.9,0,1.6-0.2,2-0.5c0.5-0.3,0.7-0.8,0.7-1.4s-0.2-1.1-0.7-1.4
			c-0.5-0.3-1.1-0.5-2-0.5h-4.7v-3.6H69c0.9,0,1.5-0.1,2-0.4c0.4-0.3,0.6-0.7,0.6-1.3c0-0.6-0.2-1.1-0.6-1.3c-0.4-0.3-1.1-0.4-2-0.4
			h-3.5V17.5z"/>
		<path d="M76.6,21.2l8-18.2h5.1l8.1,18.2h-5.4L86.1,5.6h2l-6.3,15.7H76.6z M81,17.7l1.3-3.8h8.9l1.3,3.8H81z"/>
	</g>
</g>
</svg>
