<?xml version="1.0" encoding="utf-8"?>
<!-- Generator: Adobe Illustrator 28.0.0, SVG Export Plug-In . SVG Version: 6.00 Build 0)  -->
<svg version="1.1" xmlns="http://www.w3.org/2000/svg" xmlns:xlink="http://www.w3.org/1999/xlink" x="0px" y="0px"
	 viewBox="0 0 834.9 595.3" style="enable-background:new 0 0 834.9 595.3;" xml:space="preserve">
<style type="text/css">
	.st0{display:none;}
	.st1{display:inline;fill:#FFFBEC;}
	.st2{display:inline;fill:#FFED00;}
	.st3{display:inline;fill:#E6007E;}
	.st4{display:inline;fill:#009FE3;}
	.st5{display:inline;fill:#3FA535;}
	.st6{clip-path:url(#SVGID_00000013898879256522378590000017868214033779719826_);fill:#F5F5ED;}
	.st7{clip-path:url(#SVGID_00000013898879256522378590000017868214033779719826_);fill:#FFED00;}
	.st8{clip-path:url(#SVGID_00000013898879256522378590000017868214033779719826_);fill:#E6007E;}
	.st9{clip-path:url(#SVGID_00000013898879256522378590000017868214033779719826_);fill:#009FE3;}
	.st10{clip-path:url(#SVGID_00000013898879256522378590000017868214033779719826_);fill:#3FA535;}
	.st11{display:none;clip-path:url(#SVGID_00000012450283077211774270000001464276709896878781_);fill:#F5F5ED;}
	.st12{clip-path:url(#SVGID_00000012450283077211774270000001464276709896878781_);fill:#FFED00;}
	.st13{clip-path:url(#SVGID_00000012450283077211774270000001464276709896878781_);fill:#E6007E;}
	.st14{clip-path:url(#SVGID_00000012450283077211774270000001464276709896878781_);fill:#009FE3;}
	.st15{clip-path:url(#SVGID_00000012450283077211774270000001464276709896878781_);fill:#3FA535;}
	.st16{opacity:0.13;fill:#010202;}
</style>
<g id="Capa_2" class="st0">
	<rect x="-7" class="st1" width="841.9" height="595.3"/>
</g>
<g id="Capa_1" class="st0">
	<polygon class="st2" points="26.3,-2 -17,73 69.6,73 	"/>
	<polygon class="st3" points="112.9,-2 69.6,73 156.2,73 	"/>
	<polygon class="st4" points="199.5,-2 156.2,73 242.8,73 	"/>
	<polygon class="st5" points="286.1,-2 242.8,73 329.4,73 	"/>
	<polygon class="st2" points="372.7,-2 329.4,73 416,73 	"/>
	<polygon class="st3" points="459.3,-2 416,73 502.6,73 	"/>
	<polygon class="st4" points="545.9,-2 502.6,73 589.2,73 	"/>
	<polygon class="st5" points="632.5,-2 589.2,73 675.8,73 	"/>
	<polygon class="st2" points="719.1,-2 675.8,73 762.4,73 	"/>
	<polygon class="st3" points="805.7,-2 762.4,73 849,73 	"/>
	<polygon class="st4" points="-17,73 -60.3,148 26.3,148 	"/>
	<polygon class="st5" points="69.6,73 26.3,148 112.9,148 	"/>
	<polygon class="st2" points="156.2,73 112.9,148 199.5,148 	"/>
	<polygon class="st3" points="242.8,73 199.5,148 286.1,148 	"/>
	<polygon class="st4" points="329.4,73 286.1,148 372.7,148 	"/>
	<polygon class="st5" points="416,73 372.7,148 459.3,148 	"/>
	<polygon class="st2" points="502.6,73 459.3,148 545.9,148 	"/>
	<polygon class="st3" points="589.2,73 545.9,148 632.5,148 	"/>
	<polygon class="st4" points="675.8,73 632.5,148 719.1,148 	"/>
	<polygon class="st5" points="762.4,73 719.1,148 805.7,148 	"/>
	<polygon class="st2" points="849,73 805.7,148 892.3,148 	"/>
	<polygon class="st3" points="26.3,148 -17,223 69.6,223 	"/>
	<polygon class="st4" points="112.9,148 69.6,223 156.2,223 	"/>
	<polygon class="st5" points="199.5,148 156.2,223 242.8,223 	"/>
	<polygon class="st2" points="286.1,148 242.8,223 329.4,223 	"/>
	<polygon class="st3" points="372.7,148 329.4,223 416,223 	"/>
	<polygon class="st4" points="459.3,148 416,223 502.6,223 	"/>
	<polygon class="st5" points="545.9,148 502.6,223 589.2,223 	"/>
	<polygon class="st2" points="632.5,148 589.2,223 675.8,223 	"/>
	<polygon class="st3" points="719.1,148 675.8,223 762.4,223 	"/>
	<polygon class="st4" points="805.7,148 762.4,223 849,223 	"/>
	<polygon class="st5" points="-17,223 -60.3,298 26.3,298 	"/>
	<polygon class="st2" points="69.6,223 26.3,298 112.9,298 	"/>
	<polygon class="st3" points="156.2,223 112.9,298 199.5,298 	"/>
	<polygon class="st4" points="242.8,223 199.5,298 286.1,298 	"/>
	<polygon class="st5" points="329.4,223 286.1,298 372.7,298 	"/>
	<polygon class="st2" points="416,223 372.7,298 459.3,298 	"/>
	<polygon class="st3" points="502.6,223 459.3,298 545.9,298 	"/>
	<polygon class="st4" points="589.2,223 545.9,298 632.5,298 	"/>
	<polygon class="st5" points="675.8,223 632.5,298 719.1,298 	"/>
	<polygon class="st2" points="762.4,223 719.1,298 805.7,298 	"/>
	<polygon class="st3" points="849,223 805.7,298 892.3,298 	"/>
	<polygon class="st4" points="26.3,298 -17,373 69.6,373 	"/>
	<polygon class="st5" points="112.9,298 69.6,373 156.2,373 	"/>
	<polygon class="st2" points="199.5,298 156.2,373 242.8,373 	"/>
	<polygon class="st3" points="286.1,298 242.8,373 329.4,373 	"/>
	<polygon class="st4" points="372.7,298 329.4,373 416,373 	"/>
	<polygon class="st5" points="459.3,298 416,373 502.6,373 	"/>
	<polygon class="st2" points="545.9,298 502.6,373 589.2,373 	"/>
	<polygon class="st3" points="632.5,298 589.2,373 675.8,373 	"/>
	<polygon class="st4" points="719.1,298 675.8,373 762.4,373 	"/>
	<polygon class="st5" points="805.7,298 762.4,373 849,373 	"/>
	<polygon class="st2" points="-17,373 -60.3,448 26.3,448 	"/>
	<polygon class="st3" points="69.6,373 26.3,448 112.9,448 	"/>
	<polygon class="st4" points="156.2,373 112.9,448 199.5,448 	"/>
	<polygon class="st5" points="242.8,373 199.5,448 286.1,448 	"/>
	<polygon class="st2" points="329.4,373 286.1,448 372.7,448 	"/>
	<polygon class="st3" points="416,373 372.7,448 459.3,448 	"/>
	<polygon class="st4" points="502.6,373 459.3,448 545.9,448 	"/>
	<polygon class="st5" points="589.2,373 545.9,448 632.5,448 	"/>
	<polygon class="st2" points="675.8,373 632.5,448 719.1,448 	"/>
	<polygon class="st3" points="762.4,373 719.1,448 805.7,448 	"/>
	<polygon class="st4" points="849,373 805.7,448 892.3,448 	"/>
	<polygon class="st5" points="26.3,448 -17,523 69.6,523 	"/>
	<polygon class="st2" points="112.9,448 69.6,523 156.2,523 	"/>
	<polygon class="st3" points="199.5,448 156.2,523 242.8,523 	"/>
	<polygon class="st4" points="286.1,448 242.8,523 329.4,523 	"/>
	<polygon class="st5" points="372.7,448 329.4,523 416,523 	"/>
	<polygon class="st2" points="459.3,448 416,523 502.6,523 	"/>
	<polygon class="st3" points="545.9,448 502.6,523 589.2,523 	"/>
	<polygon class="st4" points="632.5,448 589.2,523 675.8,523 	"/>
	<polygon class="st5" points="719.1,448 675.8,523 762.4,523 	"/>
	<polygon class="st2" points="805.7,448 762.4,523 849,523 	"/>
	<polygon class="st3" points="-17,523 -60.3,598 26.3,598 	"/>
	<polygon class="st4" points="69.6,523 26.3,598 112.9,598 	"/>
	<polygon class="st5" points="156.2,523 112.9,598 199.5,598 	"/>
	<polygon class="st2" points="242.8,523 199.5,598 286.1,598 	"/>
	<polygon class="st3" points="329.4,523 286.1,598 372.7,598 	"/>
	<polygon class="st4" points="416,523 372.7,598 459.3,598 	"/>
	<polygon class="st5" points="502.6,523 459.3,598 545.9,598 	"/>
	<polygon class="st2" points="589.2,523 545.9,598 632.5,598 	"/>
	<polygon class="st3" points="675.8,523 632.5,598 719.1,598 	"/>
	<polygon class="st4" points="762.4,523 719.1,598 805.7,598 	"/>
	<polygon class="st5" points="849,523 805.7,598 892.3,598 	"/>
</g>
<g id="Capa_2_copia">
</g>
<g id="Capa_1_copia_2">
</g>
<g id="Capa_6">
	<g>
		<defs>
			<rect id="SVGID_1_" x="-7" width="841.9" height="595.3"/>
		</defs>
		<clipPath id="SVGID_00000012435238250698016150000010896800305798624900_">
			<use xlink:href="#SVGID_1_"  style="overflow:visible;"/>
		</clipPath>
		
			<rect x="-7" style="clip-path:url(#SVGID_00000012435238250698016150000010896800305798624900_);fill:#F5F5ED;" width="841.9" height="595.3"/>
		<polygon style="clip-path:url(#SVGID_00000012435238250698016150000010896800305798624900_);fill:#FFED00;" points="28,-2 
			-15.1,72.7 71.2,72.7 		"/>
		<polygon style="clip-path:url(#SVGID_00000012435238250698016150000010896800305798624900_);fill:#E6007E;" points="114.3,-2 
			71.2,72.7 157.4,72.7 		"/>
		<polygon style="clip-path:url(#SVGID_00000012435238250698016150000010896800305798624900_);fill:#009FE3;" points="200.5,-2 
			157.4,72.7 243.6,72.7 		"/>
		<polygon style="clip-path:url(#SVGID_00000012435238250698016150000010896800305798624900_);fill:#3FA535;" points="286.7,-2 
			243.6,72.7 329.8,72.7 		"/>
		<polygon style="clip-path:url(#SVGID_00000012435238250698016150000010896800305798624900_);fill:#FFED00;" points="372.9,-2 
			329.8,72.7 416,72.7 		"/>
		<polygon style="clip-path:url(#SVGID_00000012435238250698016150000010896800305798624900_);fill:#E6007E;" points="459.1,-2 
			416,72.7 502.2,72.7 		"/>
		<polygon style="clip-path:url(#SVGID_00000012435238250698016150000010896800305798624900_);fill:#009FE3;" points="545.3,-2 
			502.2,72.7 588.4,72.7 		"/>
		<polygon style="clip-path:url(#SVGID_00000012435238250698016150000010896800305798624900_);fill:#3FA535;" points="631.5,-2 
			588.4,72.7 674.6,72.7 		"/>
		<polygon style="clip-path:url(#SVGID_00000012435238250698016150000010896800305798624900_);fill:#FFED00;" points="717.7,-2 
			674.6,72.7 760.8,72.7 		"/>
		<polygon style="clip-path:url(#SVGID_00000012435238250698016150000010896800305798624900_);fill:#E6007E;" points="803.9,-2 
			760.8,72.7 847,72.7 		"/>
		<polygon style="clip-path:url(#SVGID_00000012435238250698016150000010896800305798624900_);fill:#009FE3;" points="-15.1,72.7 
			-58.2,147.3 28,147.3 		"/>
		<polygon style="clip-path:url(#SVGID_00000012435238250698016150000010896800305798624900_);fill:#3FA535;" points="71.2,72.7 
			28,147.3 114.3,147.3 		"/>
		<polygon style="clip-path:url(#SVGID_00000012435238250698016150000010896800305798624900_);fill:#FFED00;" points="157.4,72.7 
			114.3,147.3 200.5,147.3 		"/>
		<polygon style="clip-path:url(#SVGID_00000012435238250698016150000010896800305798624900_);fill:#E6007E;" points="243.6,72.7 
			200.5,147.3 286.7,147.3 		"/>
		<polygon style="clip-path:url(#SVGID_00000012435238250698016150000010896800305798624900_);fill:#009FE3;" points="329.8,72.7 
			286.7,147.3 372.9,147.3 		"/>
		<polygon style="clip-path:url(#SVGID_00000012435238250698016150000010896800305798624900_);fill:#3FA535;" points="416,72.7 
			372.9,147.3 459.1,147.3 		"/>
		<polygon style="clip-path:url(#SVGID_00000012435238250698016150000010896800305798624900_);fill:#FFED00;" points="502.2,72.7 
			459.1,147.3 545.3,147.3 		"/>
		<polygon style="clip-path:url(#SVGID_00000012435238250698016150000010896800305798624900_);fill:#E6007E;" points="588.4,72.7 
			545.3,147.3 631.5,147.3 		"/>
		<polygon style="clip-path:url(#SVGID_00000012435238250698016150000010896800305798624900_);fill:#009FE3;" points="674.6,72.7 
			631.5,147.3 717.7,147.3 		"/>
		<polygon style="clip-path:url(#SVGID_00000012435238250698016150000010896800305798624900_);fill:#3FA535;" points="760.8,72.7 
			717.7,147.3 803.9,147.3 		"/>
		<polygon style="clip-path:url(#SVGID_00000012435238250698016150000010896800305798624900_);fill:#FFED00;" points="847,72.7 
			803.9,147.3 890.1,147.3 		"/>
		<polygon style="clip-path:url(#SVGID_00000012435238250698016150000010896800305798624900_);fill:#E6007E;" points="28,147.3 
			-15.1,222 71.2,222 		"/>
		<polygon style="clip-path:url(#SVGID_00000012435238250698016150000010896800305798624900_);fill:#009FE3;" points="114.3,147.3 
			71.2,222 157.4,222 		"/>
		<polygon style="clip-path:url(#SVGID_00000012435238250698016150000010896800305798624900_);fill:#3FA535;" points="200.5,147.3 
			157.4,222 243.6,222 		"/>
		<polygon style="clip-path:url(#SVGID_00000012435238250698016150000010896800305798624900_);fill:#FFED00;" points="286.7,147.3 
			243.6,222 329.8,222 		"/>
		<polygon style="clip-path:url(#SVGID_00000012435238250698016150000010896800305798624900_);fill:#E6007E;" points="372.9,147.3 
			329.8,222 416,222 		"/>
		<polygon style="clip-path:url(#SVGID_00000012435238250698016150000010896800305798624900_);fill:#009FE3;" points="459.1,147.3 
			416,222 502.2,222 		"/>
		<polygon style="clip-path:url(#SVGID_00000012435238250698016150000010896800305798624900_);fill:#3FA535;" points="545.3,147.3 
			502.2,222 588.4,222 		"/>
		<polygon style="clip-path:url(#SVGID_00000012435238250698016150000010896800305798624900_);fill:#FFED00;" points="631.5,147.3 
			588.4,222 674.6,222 		"/>
		<polygon style="clip-path:url(#SVGID_00000012435238250698016150000010896800305798624900_);fill:#E6007E;" points="717.7,147.3 
			674.6,222 760.8,222 		"/>
		<polygon style="clip-path:url(#SVGID_00000012435238250698016150000010896800305798624900_);fill:#009FE3;" points="803.9,147.3 
			760.8,222 847,222 		"/>
		<polygon style="clip-path:url(#SVGID_00000012435238250698016150000010896800305798624900_);fill:#3FA535;" points="-15.1,222 
			-58.2,296.6 28,296.6 		"/>
		<polygon style="clip-path:url(#SVGID_00000012435238250698016150000010896800305798624900_);fill:#FFED00;" points="71.2,222 
			28,296.6 114.3,296.6 		"/>
		<polygon style="clip-path:url(#SVGID_00000012435238250698016150000010896800305798624900_);fill:#E6007E;" points="157.4,222 
			114.3,296.6 200.5,296.6 		"/>
		<polygon style="clip-path:url(#SVGID_00000012435238250698016150000010896800305798624900_);fill:#009FE3;" points="243.6,222 
			200.5,296.6 286.7,296.6 		"/>
		<polygon style="clip-path:url(#SVGID_00000012435238250698016150000010896800305798624900_);fill:#3FA535;" points="329.8,222 
			286.7,296.6 372.9,296.6 		"/>
		<polygon style="clip-path:url(#SVGID_00000012435238250698016150000010896800305798624900_);fill:#FFED00;" points="416,222 
			372.9,296.6 459.1,296.6 		"/>
		<polygon style="clip-path:url(#SVGID_00000012435238250698016150000010896800305798624900_);fill:#E6007E;" points="502.2,222 
			459.1,296.6 545.3,296.6 		"/>
		<polygon style="clip-path:url(#SVGID_00000012435238250698016150000010896800305798624900_);fill:#009FE3;" points="588.4,222 
			545.3,296.6 631.5,296.6 		"/>
		<polygon style="clip-path:url(#SVGID_00000012435238250698016150000010896800305798624900_);fill:#3FA535;" points="674.6,222 
			631.5,296.6 717.7,296.6 		"/>
		<polygon style="clip-path:url(#SVGID_00000012435238250698016150000010896800305798624900_);fill:#FFED00;" points="760.8,222 
			717.7,296.6 803.9,296.6 		"/>
		<polygon style="clip-path:url(#SVGID_00000012435238250698016150000010896800305798624900_);fill:#E6007E;" points="847,222 
			803.9,296.6 890.1,296.6 		"/>
		<polygon style="clip-path:url(#SVGID_00000012435238250698016150000010896800305798624900_);fill:#009FE3;" points="28,296.6 
			-15.1,371.3 71.2,371.3 		"/>
		<polygon style="clip-path:url(#SVGID_00000012435238250698016150000010896800305798624900_);fill:#3FA535;" points="114.3,296.6 
			71.2,371.3 157.4,371.3 		"/>
		<polygon style="clip-path:url(#SVGID_00000012435238250698016150000010896800305798624900_);fill:#FFED00;" points="200.5,296.6 
			157.4,371.3 243.6,371.3 		"/>
		<polygon style="clip-path:url(#SVGID_00000012435238250698016150000010896800305798624900_);fill:#E6007E;" points="286.7,296.6 
			243.6,371.3 329.8,371.3 		"/>
		<polygon style="clip-path:url(#SVGID_00000012435238250698016150000010896800305798624900_);fill:#009FE3;" points="372.9,296.6 
			329.8,371.3 416,371.3 		"/>
		<polygon style="clip-path:url(#SVGID_00000012435238250698016150000010896800305798624900_);fill:#3FA535;" points="459.1,296.6 
			416,371.3 502.2,371.3 		"/>
		<polygon style="clip-path:url(#SVGID_00000012435238250698016150000010896800305798624900_);fill:#FFED00;" points="545.3,296.6 
			502.2,371.3 588.4,371.3 		"/>
		<polygon style="clip-path:url(#SVGID_00000012435238250698016150000010896800305798624900_);fill:#E6007E;" points="631.5,296.6 
			588.4,371.3 674.6,371.3 		"/>
		<polygon style="clip-path:url(#SVGID_00000012435238250698016150000010896800305798624900_);fill:#009FE3;" points="717.7,296.6 
			674.6,371.3 760.8,371.3 		"/>
		<polygon style="clip-path:url(#SVGID_00000012435238250698016150000010896800305798624900_);fill:#3FA535;" points="803.9,296.6 
			760.8,371.3 847,371.3 		"/>
		<polygon style="clip-path:url(#SVGID_00000012435238250698016150000010896800305798624900_);fill:#FFED00;" points="-15.1,371.3 
			-58.2,446 28,446 		"/>
		<polygon style="clip-path:url(#SVGID_00000012435238250698016150000010896800305798624900_);fill:#E6007E;" points="71.2,371.3 
			28,446 114.3,446 		"/>
		<polygon style="clip-path:url(#SVGID_00000012435238250698016150000010896800305798624900_);fill:#009FE3;" points="157.4,371.3 
			114.3,446 200.5,446 		"/>
		<polygon style="clip-path:url(#SVGID_00000012435238250698016150000010896800305798624900_);fill:#3FA535;" points="243.6,371.3 
			200.5,446 286.7,446 		"/>
		<polygon style="clip-path:url(#SVGID_00000012435238250698016150000010896800305798624900_);fill:#FFED00;" points="329.8,371.3 
			286.7,446 372.9,446 		"/>
		<polygon style="clip-path:url(#SVGID_00000012435238250698016150000010896800305798624900_);fill:#E6007E;" points="416,371.3 
			372.9,446 459.1,446 		"/>
		<polygon style="clip-path:url(#SVGID_00000012435238250698016150000010896800305798624900_);fill:#009FE3;" points="502.2,371.3 
			459.1,446 545.3,446 		"/>
		<polygon style="clip-path:url(#SVGID_00000012435238250698016150000010896800305798624900_);fill:#3FA535;" points="588.4,371.3 
			545.3,446 631.5,446 		"/>
		<polygon style="clip-path:url(#SVGID_00000012435238250698016150000010896800305798624900_);fill:#FFED00;" points="674.6,371.3 
			631.5,446 717.7,446 		"/>
		<polygon style="clip-path:url(#SVGID_00000012435238250698016150000010896800305798624900_);fill:#E6007E;" points="760.8,371.3 
			717.7,446 803.9,446 		"/>
		<polygon style="clip-path:url(#SVGID_00000012435238250698016150000010896800305798624900_);fill:#009FE3;" points="847,371.3 
			803.9,446 890.1,446 		"/>
		<polygon style="clip-path:url(#SVGID_00000012435238250698016150000010896800305798624900_);fill:#3FA535;" points="28,446 
			-15.1,520.6 71.2,520.6 		"/>
		<polygon style="clip-path:url(#SVGID_00000012435238250698016150000010896800305798624900_);fill:#FFED00;" points="114.3,446 
			71.2,520.6 157.4,520.6 		"/>
		<polygon style="clip-path:url(#SVGID_00000012435238250698016150000010896800305798624900_);fill:#E6007E;" points="200.5,446 
			157.4,520.6 243.6,520.6 		"/>
		<polygon style="clip-path:url(#SVGID_00000012435238250698016150000010896800305798624900_);fill:#009FE3;" points="286.7,446 
			243.6,520.6 329.8,520.6 		"/>
		<polygon style="clip-path:url(#SVGID_00000012435238250698016150000010896800305798624900_);fill:#3FA535;" points="372.9,446 
			329.8,520.6 416,520.6 		"/>
		<polygon style="clip-path:url(#SVGID_00000012435238250698016150000010896800305798624900_);fill:#FFED00;" points="459.1,446 
			416,520.6 502.2,520.6 		"/>
		<polygon style="clip-path:url(#SVGID_00000012435238250698016150000010896800305798624900_);fill:#E6007E;" points="545.3,446 
			502.2,520.6 588.4,520.6 		"/>
		<polygon style="clip-path:url(#SVGID_00000012435238250698016150000010896800305798624900_);fill:#009FE3;" points="631.5,446 
			588.4,520.6 674.6,520.6 		"/>
		<polygon style="clip-path:url(#SVGID_00000012435238250698016150000010896800305798624900_);fill:#3FA535;" points="717.7,446 
			674.6,520.6 760.8,520.6 		"/>
		<polygon style="clip-path:url(#SVGID_00000012435238250698016150000010896800305798624900_);fill:#FFED00;" points="803.9,446 
			760.8,520.6 847,520.6 		"/>
		<polygon style="clip-path:url(#SVGID_00000012435238250698016150000010896800305798624900_);fill:#E6007E;" points="-15.1,520.6 
			-58.2,595.3 28,595.3 		"/>
		<polygon style="clip-path:url(#SVGID_00000012435238250698016150000010896800305798624900_);fill:#009FE3;" points="71.2,520.6 
			28,595.3 114.3,595.3 		"/>
		<polygon style="clip-path:url(#SVGID_00000012435238250698016150000010896800305798624900_);fill:#3FA535;" points="157.4,520.6 
			114.3,595.3 200.5,595.3 		"/>
		<polygon style="clip-path:url(#SVGID_00000012435238250698016150000010896800305798624900_);fill:#FFED00;" points="243.6,520.6 
			200.5,595.3 286.7,595.3 		"/>
		<polygon style="clip-path:url(#SVGID_00000012435238250698016150000010896800305798624900_);fill:#E6007E;" points="329.8,520.6 
			286.7,595.3 372.9,595.3 		"/>
		<polygon style="clip-path:url(#SVGID_00000012435238250698016150000010896800305798624900_);fill:#009FE3;" points="416,520.6 
			372.9,595.3 459.1,595.3 		"/>
		<polygon style="clip-path:url(#SVGID_00000012435238250698016150000010896800305798624900_);fill:#3FA535;" points="502.2,520.6 
			459.1,595.3 545.3,595.3 		"/>
		<polygon style="clip-path:url(#SVGID_00000012435238250698016150000010896800305798624900_);fill:#FFED00;" points="588.4,520.6 
			545.3,595.3 631.5,595.3 		"/>
		<polygon style="clip-path:url(#SVGID_00000012435238250698016150000010896800305798624900_);fill:#E6007E;" points="674.6,520.6 
			631.5,595.3 717.7,595.3 		"/>
		<polygon style="clip-path:url(#SVGID_00000012435238250698016150000010896800305798624900_);fill:#009FE3;" points="760.8,520.6 
			717.7,595.3 803.9,595.3 		"/>
		<polygon style="clip-path:url(#SVGID_00000012435238250698016150000010896800305798624900_);fill:#3FA535;" points="847,520.6 
			803.9,595.3 890.1,595.3 		"/>
	</g>
	<g>
		<defs>
			
				<rect id="SVGID_00000176024499733775044140000015734319025719393673_" x="-2.9" y="-2" transform="matrix(-1 -1.224647e-16 1.224647e-16 -1 836.1151 591.2701)" width="841.9" height="595.3"/>
		</defs>
		<clipPath id="SVGID_00000047022477869232281860000012632736092307708321_">
			<use xlink:href="#SVGID_00000176024499733775044140000015734319025719393673_"  style="overflow:visible;"/>
		</clipPath>
		
			<rect x="-2.9" y="-2" transform="matrix(-1 -1.224647e-16 1.224647e-16 -1 836.1151 591.2701)" style="display:none;clip-path:url(#SVGID_00000047022477869232281860000012632736092307708321_);fill:#F5F5ED;" width="841.9" height="595.3"/>
		<polygon style="clip-path:url(#SVGID_00000047022477869232281860000012632736092307708321_);fill:#FFED00;" points="803.9,595.3 
			847,520.6 760.8,520.6 		"/>
		<polygon style="clip-path:url(#SVGID_00000047022477869232281860000012632736092307708321_);fill:#E6007E;" points="717.7,595.3 
			760.8,520.6 674.6,520.6 		"/>
		<polygon style="clip-path:url(#SVGID_00000047022477869232281860000012632736092307708321_);fill:#009FE3;" points="631.5,595.3 
			674.6,520.6 588.4,520.6 		"/>
		<polygon style="clip-path:url(#SVGID_00000047022477869232281860000012632736092307708321_);fill:#3FA535;" points="545.3,595.3 
			588.4,520.6 502.2,520.6 		"/>
		<polygon style="clip-path:url(#SVGID_00000047022477869232281860000012632736092307708321_);fill:#FFED00;" points="459.1,595.3 
			502.2,520.6 416,520.6 		"/>
		<polygon style="clip-path:url(#SVGID_00000047022477869232281860000012632736092307708321_);fill:#E6007E;" points="372.9,595.3 
			416,520.6 329.8,520.6 		"/>
		<polygon style="clip-path:url(#SVGID_00000047022477869232281860000012632736092307708321_);fill:#009FE3;" points="286.7,595.3 
			329.8,520.6 243.6,520.6 		"/>
		<polygon style="clip-path:url(#SVGID_00000047022477869232281860000012632736092307708321_);fill:#3FA535;" points="200.5,595.3 
			243.6,520.6 157.4,520.6 		"/>
		<polygon style="clip-path:url(#SVGID_00000047022477869232281860000012632736092307708321_);fill:#FFED00;" points="114.3,595.3 
			157.4,520.6 71.2,520.6 		"/>
		<polygon style="clip-path:url(#SVGID_00000047022477869232281860000012632736092307708321_);fill:#E6007E;" points="28,595.3 
			71.2,520.6 -15.1,520.6 		"/>
		<polygon style="clip-path:url(#SVGID_00000047022477869232281860000012632736092307708321_);fill:#009FE3;" points="847,520.6 
			890.1,446 803.9,446 		"/>
		<polygon style="clip-path:url(#SVGID_00000047022477869232281860000012632736092307708321_);fill:#3FA535;" points="760.8,520.6 
			803.9,446 717.7,446 		"/>
		<polygon style="clip-path:url(#SVGID_00000047022477869232281860000012632736092307708321_);fill:#FFED00;" points="674.6,520.6 
			717.7,446 631.5,446 		"/>
		<polygon style="clip-path:url(#SVGID_00000047022477869232281860000012632736092307708321_);fill:#E6007E;" points="588.4,520.6 
			631.5,446 545.3,446 		"/>
		<polygon style="clip-path:url(#SVGID_00000047022477869232281860000012632736092307708321_);fill:#009FE3;" points="502.2,520.6 
			545.3,446 459.1,446 		"/>
		<polygon style="clip-path:url(#SVGID_00000047022477869232281860000012632736092307708321_);fill:#3FA535;" points="416,520.6 
			459.1,446 372.9,446 		"/>
		<polygon style="clip-path:url(#SVGID_00000047022477869232281860000012632736092307708321_);fill:#FFED00;" points="329.8,520.6 
			372.9,446 286.7,446 		"/>
		<polygon style="clip-path:url(#SVGID_00000047022477869232281860000012632736092307708321_);fill:#E6007E;" points="243.6,520.6 
			286.7,446 200.5,446 		"/>
		<polygon style="clip-path:url(#SVGID_00000047022477869232281860000012632736092307708321_);fill:#009FE3;" points="157.4,520.6 
			200.5,446 114.3,446 		"/>
		<polygon style="clip-path:url(#SVGID_00000047022477869232281860000012632736092307708321_);fill:#3FA535;" points="71.2,520.6 
			114.3,446 28,446 		"/>
		<polygon style="clip-path:url(#SVGID_00000047022477869232281860000012632736092307708321_);fill:#FFED00;" points="-15.1,520.6 
			28,446 -58.2,446 		"/>
		<polygon style="clip-path:url(#SVGID_00000047022477869232281860000012632736092307708321_);fill:#E6007E;" points="803.9,446 
			847,371.3 760.8,371.3 		"/>
		<polygon style="clip-path:url(#SVGID_00000047022477869232281860000012632736092307708321_);fill:#009FE3;" points="717.7,446 
			760.8,371.3 674.6,371.3 		"/>
		<polygon style="clip-path:url(#SVGID_00000047022477869232281860000012632736092307708321_);fill:#3FA535;" points="631.5,446 
			674.6,371.3 588.4,371.3 		"/>
		<polygon style="clip-path:url(#SVGID_00000047022477869232281860000012632736092307708321_);fill:#FFED00;" points="545.3,446 
			588.4,371.3 502.2,371.3 		"/>
		<polygon style="clip-path:url(#SVGID_00000047022477869232281860000012632736092307708321_);fill:#E6007E;" points="459.1,446 
			502.2,371.3 416,371.3 		"/>
		<polygon style="clip-path:url(#SVGID_00000047022477869232281860000012632736092307708321_);fill:#009FE3;" points="372.9,446 
			416,371.3 329.8,371.3 		"/>
		<polygon style="clip-path:url(#SVGID_00000047022477869232281860000012632736092307708321_);fill:#3FA535;" points="286.7,446 
			329.8,371.3 243.6,371.3 		"/>
		<polygon style="clip-path:url(#SVGID_00000047022477869232281860000012632736092307708321_);fill:#FFED00;" points="200.5,446 
			243.6,371.3 157.4,371.3 		"/>
		<polygon style="clip-path:url(#SVGID_00000047022477869232281860000012632736092307708321_);fill:#E6007E;" points="114.3,446 
			157.4,371.3 71.2,371.3 		"/>
		<polygon style="clip-path:url(#SVGID_00000047022477869232281860000012632736092307708321_);fill:#009FE3;" points="28,446 
			71.2,371.3 -15.1,371.3 		"/>
		<polygon style="clip-path:url(#SVGID_00000047022477869232281860000012632736092307708321_);fill:#3FA535;" points="847,371.3 
			890.1,296.6 803.9,296.6 		"/>
		<polygon style="clip-path:url(#SVGID_00000047022477869232281860000012632736092307708321_);fill:#FFED00;" points="760.8,371.3 
			803.9,296.6 717.7,296.6 		"/>
		<polygon style="clip-path:url(#SVGID_00000047022477869232281860000012632736092307708321_);fill:#E6007E;" points="674.6,371.3 
			717.7,296.6 631.5,296.6 		"/>
		<polygon style="clip-path:url(#SVGID_00000047022477869232281860000012632736092307708321_);fill:#009FE3;" points="588.4,371.3 
			631.5,296.6 545.3,296.6 		"/>
		<polygon style="clip-path:url(#SVGID_00000047022477869232281860000012632736092307708321_);fill:#3FA535;" points="502.2,371.3 
			545.3,296.6 459.1,296.6 		"/>
		<polygon style="clip-path:url(#SVGID_00000047022477869232281860000012632736092307708321_);fill:#FFED00;" points="416,371.3 
			459.1,296.6 372.9,296.6 		"/>
		<polygon style="clip-path:url(#SVGID_00000047022477869232281860000012632736092307708321_);fill:#E6007E;" points="329.8,371.3 
			372.9,296.6 286.7,296.6 		"/>
		<polygon style="clip-path:url(#SVGID_00000047022477869232281860000012632736092307708321_);fill:#009FE3;" points="243.6,371.3 
			286.7,296.6 200.5,296.6 		"/>
		<polygon style="clip-path:url(#SVGID_00000047022477869232281860000012632736092307708321_);fill:#3FA535;" points="157.4,371.3 
			200.5,296.6 114.3,296.6 		"/>
		<polygon style="clip-path:url(#SVGID_00000047022477869232281860000012632736092307708321_);fill:#FFED00;" points="71.2,371.3 
			114.3,296.6 28,296.6 		"/>
		<polygon style="clip-path:url(#SVGID_00000047022477869232281860000012632736092307708321_);fill:#E6007E;" points="-15.1,371.3 
			28,296.6 -58.2,296.6 		"/>
		<polygon style="clip-path:url(#SVGID_00000047022477869232281860000012632736092307708321_);fill:#009FE3;" points="803.9,296.6 
			847,222 760.8,222 		"/>
		<polygon style="clip-path:url(#SVGID_00000047022477869232281860000012632736092307708321_);fill:#3FA535;" points="717.7,296.6 
			760.8,222 674.6,222 		"/>
		<polygon style="clip-path:url(#SVGID_00000047022477869232281860000012632736092307708321_);fill:#FFED00;" points="631.5,296.6 
			674.6,222 588.4,222 		"/>
		<polygon style="clip-path:url(#SVGID_00000047022477869232281860000012632736092307708321_);fill:#E6007E;" points="545.3,296.6 
			588.4,222 502.2,222 		"/>
		<polygon style="clip-path:url(#SVGID_00000047022477869232281860000012632736092307708321_);fill:#009FE3;" points="459.1,296.6 
			502.2,222 416,222 		"/>
		<polygon style="clip-path:url(#SVGID_00000047022477869232281860000012632736092307708321_);fill:#3FA535;" points="372.9,296.6 
			416,222 329.8,222 		"/>
		<polygon style="clip-path:url(#SVGID_00000047022477869232281860000012632736092307708321_);fill:#FFED00;" points="286.7,296.6 
			329.8,222 243.6,222 		"/>
		<polygon style="clip-path:url(#SVGID_00000047022477869232281860000012632736092307708321_);fill:#E6007E;" points="200.5,296.6 
			243.6,222 157.4,222 		"/>
		<polygon style="clip-path:url(#SVGID_00000047022477869232281860000012632736092307708321_);fill:#009FE3;" points="114.3,296.6 
			157.4,222 71.2,222 		"/>
		<polygon style="clip-path:url(#SVGID_00000047022477869232281860000012632736092307708321_);fill:#3FA535;" points="28,296.6 
			71.2,222 -15.1,222 		"/>
		<polygon style="clip-path:url(#SVGID_00000047022477869232281860000012632736092307708321_);fill:#FFED00;" points="847,222 
			890.1,147.3 803.9,147.3 		"/>
		<polygon style="clip-path:url(#SVGID_00000047022477869232281860000012632736092307708321_);fill:#E6007E;" points="760.8,222 
			803.9,147.3 717.7,147.3 		"/>
		<polygon style="clip-path:url(#SVGID_00000047022477869232281860000012632736092307708321_);fill:#009FE3;" points="674.6,222 
			717.7,147.3 631.5,147.3 		"/>
		<polygon style="clip-path:url(#SVGID_00000047022477869232281860000012632736092307708321_);fill:#3FA535;" points="588.4,222 
			631.5,147.3 545.3,147.3 		"/>
		<polygon style="clip-path:url(#SVGID_00000047022477869232281860000012632736092307708321_);fill:#FFED00;" points="502.2,222 
			545.3,147.3 459.1,147.3 		"/>
		<polygon style="clip-path:url(#SVGID_00000047022477869232281860000012632736092307708321_);fill:#E6007E;" points="416,222 
			459.1,147.3 372.9,147.3 		"/>
		<polygon style="clip-path:url(#SVGID_00000047022477869232281860000012632736092307708321_);fill:#009FE3;" points="329.8,222 
			372.9,147.3 286.7,147.3 		"/>
		<polygon style="clip-path:url(#SVGID_00000047022477869232281860000012632736092307708321_);fill:#3FA535;" points="243.6,222 
			286.7,147.3 200.5,147.3 		"/>
		<polygon style="clip-path:url(#SVGID_00000047022477869232281860000012632736092307708321_);fill:#FFED00;" points="157.4,222 
			200.5,147.3 114.3,147.3 		"/>
		<polygon style="clip-path:url(#SVGID_00000047022477869232281860000012632736092307708321_);fill:#E6007E;" points="71.2,222 
			114.3,147.3 28,147.3 		"/>
		<polygon style="clip-path:url(#SVGID_00000047022477869232281860000012632736092307708321_);fill:#009FE3;" points="-15.1,222 
			28,147.3 -58.2,147.3 		"/>
		<polygon style="clip-path:url(#SVGID_00000047022477869232281860000012632736092307708321_);fill:#3FA535;" points="803.9,147.3 
			847,72.7 760.8,72.7 		"/>
		<polygon style="clip-path:url(#SVGID_00000047022477869232281860000012632736092307708321_);fill:#FFED00;" points="717.7,147.3 
			760.8,72.7 674.6,72.7 		"/>
		<polygon style="clip-path:url(#SVGID_00000047022477869232281860000012632736092307708321_);fill:#E6007E;" points="631.5,147.3 
			674.6,72.7 588.4,72.7 		"/>
		<polygon style="clip-path:url(#SVGID_00000047022477869232281860000012632736092307708321_);fill:#009FE3;" points="545.3,147.3 
			588.4,72.7 502.2,72.7 		"/>
		<polygon style="clip-path:url(#SVGID_00000047022477869232281860000012632736092307708321_);fill:#3FA535;" points="459.1,147.3 
			502.2,72.7 416,72.7 		"/>
		<polygon style="clip-path:url(#SVGID_00000047022477869232281860000012632736092307708321_);fill:#FFED00;" points="372.9,147.3 
			416,72.7 329.8,72.7 		"/>
		<polygon style="clip-path:url(#SVGID_00000047022477869232281860000012632736092307708321_);fill:#E6007E;" points="286.7,147.3 
			329.8,72.7 243.6,72.7 		"/>
		<polygon style="clip-path:url(#SVGID_00000047022477869232281860000012632736092307708321_);fill:#009FE3;" points="200.5,147.3 
			243.6,72.7 157.4,72.7 		"/>
		<polygon style="clip-path:url(#SVGID_00000047022477869232281860000012632736092307708321_);fill:#3FA535;" points="114.3,147.3 
			157.4,72.7 71.2,72.7 		"/>
		<polygon style="clip-path:url(#SVGID_00000047022477869232281860000012632736092307708321_);fill:#FFED00;" points="28,147.3 
			71.2,72.7 -15.1,72.7 		"/>
		<polygon style="clip-path:url(#SVGID_00000047022477869232281860000012632736092307708321_);fill:#E6007E;" points="847,72.7 
			890.1,-2 803.9,-2 		"/>
		<polygon style="clip-path:url(#SVGID_00000047022477869232281860000012632736092307708321_);fill:#009FE3;" points="760.8,72.7 
			803.9,-2 717.7,-2 		"/>
		<polygon style="clip-path:url(#SVGID_00000047022477869232281860000012632736092307708321_);fill:#3FA535;" points="674.6,72.7 
			717.7,-2 631.5,-2 		"/>
		<polygon style="clip-path:url(#SVGID_00000047022477869232281860000012632736092307708321_);fill:#FFED00;" points="588.4,72.7 
			631.5,-2 545.3,-2 		"/>
		<polygon style="clip-path:url(#SVGID_00000047022477869232281860000012632736092307708321_);fill:#E6007E;" points="502.2,72.7 
			545.3,-2 459.1,-2 		"/>
		<polygon style="clip-path:url(#SVGID_00000047022477869232281860000012632736092307708321_);fill:#009FE3;" points="416,72.7 
			459.1,-2 372.9,-2 		"/>
		<polygon style="clip-path:url(#SVGID_00000047022477869232281860000012632736092307708321_);fill:#3FA535;" points="329.8,72.7 
			372.9,-2 286.7,-2 		"/>
		<polygon style="clip-path:url(#SVGID_00000047022477869232281860000012632736092307708321_);fill:#FFED00;" points="243.6,72.7 
			286.7,-2 200.5,-2 		"/>
		<polygon style="clip-path:url(#SVGID_00000047022477869232281860000012632736092307708321_);fill:#E6007E;" points="157.4,72.7 
			200.5,-2 114.3,-2 		"/>
		<polygon style="clip-path:url(#SVGID_00000047022477869232281860000012632736092307708321_);fill:#009FE3;" points="71.2,72.7 
			114.3,-2 28,-2 		"/>
		<polygon style="clip-path:url(#SVGID_00000047022477869232281860000012632736092307708321_);fill:#3FA535;" points="-15.1,72.7 
			28,-2 -58.2,-2 		"/>
	</g>
</g>
<g id="Capa_7">
	<rect x="-2.9" class="st16" width="849" height="595.3"/>
</g>
<g id="Capa_1_copia" class="st0">
	<polygon class="st4" points="26.3,-2 -17,73 69.6,73 	"/>
	<polygon class="st4" points="112.9,-2 69.6,73 156.2,73 	"/>
	<polygon class="st4" points="199.5,-2 156.2,73 242.8,73 	"/>
	<polygon class="st4" points="286.1,-2 242.8,73 329.4,73 	"/>
	<polygon class="st4" points="372.7,-2 329.4,73 416,73 	"/>
	<polygon class="st4" points="459.3,-2 416,73 502.6,73 	"/>
	<polygon class="st4" points="545.9,-2 502.6,73 589.2,73 	"/>
	<polygon class="st4" points="632.5,-2 589.2,73 675.8,73 	"/>
	<polygon class="st3" points="719.1,-2 675.8,73 762.4,73 	"/>
	<polygon class="st3" points="805.7,-2 762.4,73 849,73 	"/>
	<polygon class="st4" points="-17,73 -60.3,148 26.3,148 	"/>
	<polygon class="st4" points="69.6,73 26.3,148 112.9,148 	"/>
	<polygon class="st4" points="156.2,73 112.9,148 199.5,148 	"/>
	<polygon class="st4" points="242.8,73 199.5,148 286.1,148 	"/>
	<polygon class="st4" points="329.4,73 286.1,148 372.7,148 	"/>
	<polygon class="st4" points="416,73 372.7,148 459.3,148 	"/>
	<polygon class="st4" points="502.6,73 459.3,148 545.9,148 	"/>
	<polygon class="st4" points="589.2,73 545.9,148 632.5,148 	"/>
	<polygon class="st3" points="675.8,73 632.5,148 719.1,148 	"/>
	<polygon class="st3" points="762.4,73 719.1,148 805.7,148 	"/>
	<polygon class="st3" points="849,73 805.7,148 892.3,148 	"/>
	<polygon class="st4" points="26.3,148 -17,223 69.6,223 	"/>
	<polygon class="st4" points="112.9,148 69.6,223 156.2,223 	"/>
	<polygon class="st4" points="199.5,148 156.2,223 242.8,223 	"/>
	<polygon class="st4" points="286.1,148 242.8,223 329.4,223 	"/>
	<polygon class="st4" points="372.7,148 329.4,223 416,223 	"/>
	<polygon class="st4" points="459.3,148 416,223 502.6,223 	"/>
	<polygon class="st4" points="545.9,148 502.6,223 589.2,223 	"/>
	<polygon class="st3" points="632.5,148 589.2,223 675.8,223 	"/>
	<polygon class="st3" points="719.1,148 675.8,223 762.4,223 	"/>
	<polygon class="st3" points="805.7,148 762.4,223 849,223 	"/>
	<polygon class="st4" points="-17,223 -60.3,298 26.3,298 	"/>
	<polygon class="st4" points="69.6,223 26.3,298 112.9,298 	"/>
	<polygon class="st4" points="156.2,223 112.9,298 199.5,298 	"/>
	<polygon class="st4" points="242.8,223 199.5,298 286.1,298 	"/>
	<polygon class="st4" points="329.4,223 286.1,298 372.7,298 	"/>
	<polygon class="st4" points="416,223 372.7,298 459.3,298 	"/>
	<polygon class="st4" points="502.6,223 459.3,298 545.9,298 	"/>
	<polygon class="st3" points="589.2,223 545.9,298 632.5,298 	"/>
	<polygon class="st3" points="675.8,223 632.5,298 719.1,298 	"/>
	<polygon class="st3" points="762.4,223 719.1,298 805.7,298 	"/>
	<polygon class="st3" points="849,223 805.7,298 892.3,298 	"/>
	<polygon class="st4" points="26.3,298 -17,373 69.6,373 	"/>
	<polygon class="st4" points="112.9,298 69.6,373 156.2,373 	"/>
	<polygon class="st4" points="199.5,298 156.2,373 242.8,373 	"/>
	<polygon class="st4" points="286.1,298 242.8,373 329.4,373 	"/>
	<polygon class="st4" points="372.7,298 329.4,373 416,373 	"/>
	<polygon class="st4" points="459.3,298 416,373 502.6,373 	"/>
	<polygon class="st3" points="545.9,298 502.6,373 589.2,373 	"/>
	<polygon class="st3" points="632.5,298 589.2,373 675.8,373 	"/>
	<polygon class="st3" points="719.1,298 675.8,373 762.4,373 	"/>
	<polygon class="st3" points="805.7,298 762.4,373 849,373 	"/>
	<polygon class="st4" points="-17,373 -60.3,448 26.3,448 	"/>
	<polygon class="st4" points="69.6,373 26.3,448 112.9,448 	"/>
	<polygon class="st4" points="156.2,373 112.9,448 199.5,448 	"/>
	<polygon class="st4" points="242.8,373 199.5,448 286.1,448 	"/>
	<polygon class="st4" points="329.4,373 286.1,448 372.7,448 	"/>
	<polygon class="st4" points="416,373 372.7,448 459.3,448 	"/>
	<polygon class="st3" points="502.6,373 459.3,448 545.9,448 	"/>
	<polygon class="st3" points="589.2,373 545.9,448 632.5,448 	"/>
	<polygon class="st3" points="675.8,373 632.5,448 719.1,448 	"/>
	<polygon class="st3" points="762.4,373 719.1,448 805.7,448 	"/>
	<polygon class="st3" points="849,373 805.7,448 892.3,448 	"/>
	<polygon class="st4" points="26.3,448 -17,523 69.6,523 	"/>
	<polygon class="st4" points="112.9,448 69.6,523 156.2,523 	"/>
	<polygon class="st4" points="199.5,448 156.2,523 242.8,523 	"/>
	<polygon class="st4" points="286.1,448 242.8,523 329.4,523 	"/>
	<polygon class="st4" points="372.7,448 329.4,523 416,523 	"/>
	<polygon class="st3" points="459.3,448 416,523 502.6,523 	"/>
	<polygon class="st3" points="545.9,448 502.6,523 589.2,523 	"/>
	<polygon class="st3" points="632.5,448 589.2,523 675.8,523 	"/>
	<polygon class="st3" points="719.1,448 675.8,523 762.4,523 	"/>
	<polygon class="st3" points="805.7,448 762.4,523 849,523 	"/>
	<polygon class="st4" points="-17,523 -60.3,598 26.3,598 	"/>
	<polygon class="st4" points="69.6,523 26.3,598 112.9,598 	"/>
	<polygon class="st4" points="156.2,523 112.9,598 199.5,598 	"/>
	<polygon class="st4" points="242.8,523 199.5,598 286.1,598 	"/>
	<polygon class="st4" points="329.4,523 286.1,598 372.7,598 	"/>
	<polygon class="st3" points="416,523 372.7,598 459.3,598 	"/>
	<polygon class="st3" points="502.6,523 459.3,598 545.9,598 	"/>
	<polygon class="st3" points="589.2,523 545.9,598 632.5,598 	"/>
	<polygon class="st3" points="675.8,523 632.5,598 719.1,598 	"/>
	<polygon class="st3" points="762.4,523 719.1,598 805.7,598 	"/>
	<polygon class="st3" points="849,523 805.7,598 892.3,598 	"/>
</g>
</svg>
